<svg width="207" height="273" viewBox="0 0 207 273" fill="none" xmlns="http://www.w3.org/2000/svg">
<path d="M144.895 102.915L144.719 103.199L144.401 103.094L138.733 101.227L143.807 104.369L144.091 104.545L143.986 104.862L142.119 110.53L145.261 105.456L145.437 105.172L145.754 105.277L151.423 107.144L146.349 104.002L146.065 103.826L146.169 103.509L148.037 97.8403L144.895 102.915Z" stroke="black" stroke-opacity="0.6" stroke-width="0.847952"/>
<path d="M72.2654 244.25L72.0708 244.468L71.8133 244.329L59.8567 237.909L69.9789 246.949L70.1969 247.144L70.0587 247.401L63.6386 259.358L72.6783 249.236L72.873 249.018L73.1305 249.156L85.0871 255.576L74.9649 246.536L74.7469 246.342L74.8851 246.084L81.3052 234.127L72.2654 244.25Z" stroke="black" stroke-opacity="0.6" stroke-width="0.741958"/>
<circle cx="158.991" cy="158.991" r="157.931" transform="matrix(-1 0 0 1 206.69 -267.113)" stroke="#EBAD1A" stroke-opacity="0.9" stroke-width="2.11988"/>
<circle cx="158.991" cy="158.991" r="157.931" transform="matrix(-1 0 0 1 77.3774 -145.223)" stroke="#EBAD1A" stroke-opacity="0.9" stroke-width="2.11988"/>
</svg>
