<svg width="188" height="273" viewBox="0 0 188 273" fill="none" xmlns="http://www.w3.org/2000/svg">
<path d="M61.9032 102.598L62.079 102.882L62.3963 102.778L68.0649 100.91L62.9907 104.052L62.7067 104.228L62.8112 104.545L64.6786 110.214L61.5365 105.14L61.3607 104.856L61.0434 104.96L55.3748 106.828L60.449 103.686L60.733 103.51L60.6285 103.193L58.7611 97.5239L61.9032 102.598Z" stroke="black" stroke-opacity="0.6" stroke-width="0.847952"/>
<path d="M134.532 243.933L134.727 244.151L134.984 244.013L146.941 237.593L136.819 246.633L136.601 246.827L136.739 247.085L143.159 259.042L134.119 248.919L133.925 248.701L133.667 248.839L121.71 255.26L131.833 246.22L132.051 246.025L131.912 245.768L125.492 233.811L134.532 243.933Z" stroke="black" stroke-opacity="0.6" stroke-width="0.741958"/>
<circle cx="159.233" cy="-108.122" r="157.931" stroke="#EBAD1A" stroke-opacity="0.9" stroke-width="2.11988"/>
<circle cx="288.546" cy="13.7683" r="157.931" stroke="#EBAD1A" stroke-opacity="0.9" stroke-width="2.11988"/>
</svg>
